<svg xmlns="http://www.w3.org/2000/svg" width="120" height="120" fill="none"><path fill="#1C9080" d="M60 0c33.134 0 60 26.866 60 60s-26.866 60-60 60S0 93.134 0 60 26.866 0 60 0Zm6.705 17.012c-17.35-.057-30.31.028-35.379.056-4.249-.21-7.114 3.248-7.396 6.41v72.169c.677 6.395 9.05 6.367 9.953-.014V74.37c2.823-1.948 5.647-3.882 8.47-5.83v37.906c1.187 5.548 8.98 5.548 10.15 0V78.691c13.92-.974 29.605 9.263 42.085 23.719 2.4-2.414 4.814-4.814 7.228-7.228a67.465 67.465 0 0 0-5.675-6.143c-7.228-6.606-11.66-9.233-19.764-14.174 5.491-3.797 10.15-7.043 13.82-9.627l.12-.085c1.258-.888 2.5-1.765 4.06-3.093 4.334-3.684 6.917-5.886 8.06-9.288 1.567-4.701-.027-10.42-3.43-14.047-3.75-3.989-8.925-4.57-10.466-4.742l-.023-.002a16.582 16.582 0 0 0-2.551-.094c-1.069.027-2.126.053-3.195.093-.029-2.527-.354-8.314-4.532-12.337-3.077-2.98-7.328-4.66-11.535-4.631Zm20.852 26.23c5.315.636 7.016 6.578 2.65 9.67-3.473 2.88-11.906 8.938-23.273 16.547-3.657-1.158-9.782-1.95-13.637-1.766V60.96c7.94-5.635 15.894-11.257 23.848-16.88l1.185-.837h9.227ZM39.05 26.344h29.285c4.054.607 5.117 4.729 4.621 6.931H49.795c-3.5.156-6.52 3.445-6.549 6.706v16.18l-.406.278c-2.756 1.898-5.512 3.795-8.268 5.706V31.029c-.184-2.06 1.531-4.812 4.479-4.685Zm14.248 22.742c.028-.36-.086-4.503.084-4.715.283-.748 1.333-1.171 2.623-1.129h5.06c-2.593 1.948-5.174 3.896-7.767 5.844Z"/><path fill="#fff" fill-rule="evenodd" d="M66.705 17.012c-17.35-.057-30.31.028-35.379.056-4.249-.21-7.114 3.248-7.396 6.41v72.169c.677 6.395 9.05 6.367 9.953-.014V74.37c2.823-1.948 5.647-3.882 8.47-5.83v37.906c1.187 5.548 8.98 5.548 10.15 0V78.691c13.92-.974 29.605 9.263 42.085 23.719 2.4-2.414 4.814-4.814 7.228-7.228a67.465 67.465 0 0 0-5.675-6.143c-7.228-6.606-11.66-9.233-19.764-14.174 5.491-3.797 10.15-7.043 13.82-9.627l.12-.085c1.258-.888 2.5-1.765 4.06-3.093 4.334-3.684 6.917-5.886 8.06-9.288 1.567-4.701-.027-10.42-3.43-14.047-3.75-3.989-8.925-4.57-10.466-4.742l-.023-.002a16.582 16.582 0 0 0-2.371-.098l-.18.004c-1.069.027-2.126.053-3.195.093-.029-2.527-.354-8.314-4.532-12.337-3.077-2.98-7.328-4.66-11.535-4.631Zm23.502 35.9c4.366-3.092 2.665-9.035-2.65-9.67H78.33l-1.185.838c-7.954 5.622-15.908 11.244-23.848 16.879v6.734c3.855-.183 9.98.608 13.637 1.766 11.367-7.61 19.8-13.667 23.273-16.547ZM68.336 26.344H39.05c-2.948-.127-4.663 2.624-4.479 4.685v31.116c2.756-1.911 5.512-3.809 8.268-5.706l.406-.279V39.98c.029-3.26 3.048-6.549 6.549-6.705h23.162c.496-2.202-.567-6.324-4.621-6.931ZM53.383 44.37c-.17.212-.056 4.355-.084 4.715 2.593-1.948 5.174-3.896 7.767-5.844h-5.06c-1.29-.042-2.34.381-2.623 1.13Z" clip-rule="evenodd"/></svg>