<svg xmlns="http://www.w3.org/2000/svg" width="144" height="60" fill="none"><g clip-path="url(#a)"><path fill="#1C9080" d="M30 0c16.567 0 30 13.433 30 30S46.567 60 30 60 0 46.567 0 30 13.433 0 30 0Zm3.352 8.506c-8.675-.028-15.155.014-17.689.028-2.124-.105-3.557 1.624-3.698 3.205v36.084c.339 3.198 4.525 3.184 4.976-.007v-10.63c1.412-.974 2.824-1.941 4.236-2.916v18.954c.593 2.774 4.489 2.774 5.075 0V39.346c6.96-.487 14.802 4.63 21.042 11.86 1.2-1.208 2.407-2.408 3.614-3.615a33.783 33.783 0 0 0-2.838-3.072c-3.614-3.303-5.83-4.616-9.882-7.086 2.746-1.899 5.075-3.522 6.91-4.814.65-.459 1.286-.904 2.09-1.589 2.167-1.842 3.459-2.943 4.03-4.644.784-2.35-.013-5.21-1.714-7.024-1.885-2.004-4.49-2.287-5.245-2.372a8.305 8.305 0 0 0-1.186-.049c-.565.015-1.123.028-1.687.05-.014-1.264-.177-4.158-2.266-6.17a8.32 8.32 0 0 0-5.767-2.315ZM43.779 21.62c2.658.318 3.508 3.29 1.325 4.835-1.736 1.44-5.952 4.469-11.636 8.274-1.829-.58-4.89-.975-6.819-.883V30.48c4.168-2.958 8.343-5.908 12.517-8.859h4.613Zm-24.253-8.45h14.643c2.027.304 2.559 2.366 2.31 3.467h-11.58c-1.75.078-3.26 1.723-3.275 3.353v8.09c-1.446.994-2.891 1.99-4.337 2.992V15.516c-.092-1.03.765-2.408 2.24-2.344Zm7.125 11.372c.015-.176-.042-2.248.042-2.357.142-.375.667-.587 1.312-.566h2.53c-1.297.974-2.587 1.949-3.884 2.923Z"/><path fill="#000" d="M75.226 43.624s-.248-.346-.39-.77c-.382-1.094-.099-8.527-.078-9.804 0-.155 0-.459-.155-.798-.397-.861-1.503-1.362-2.807-1.327v-.416c.397 0 1.389-.043 2.133-.742.766-.734.837-1.651.85-1.856v-5.075c0-.367-.063-.67-.162-.925-.759-1.998-4.281-2.337-5.734-2.407h-5.592v24.53h5.075c0-3.812-.007-7.617-.007-11.429h.871c.05 0 .418-.007.666.29.192.218.192.472.192.543-.05 4.934-.028 8.548 0 9.325.007.14.035.423.234.706.361.515.985.557 1.07.564h4.189a3.286 3.286 0 0 1-.355-.41ZM69.72 29.365c-.39.339-.964.31-1.36.24v-6.741c.708-.106 1.084.078 1.282.24.553.438.34 1.13.383 3.65.028 1.644.135 2.23-.305 2.611ZM120.935 43.624s-.248-.346-.39-.77c-.382-1.094-.099-8.527-.078-9.804 0-.155 0-.459-.156-.798-.396-.861-1.502-1.362-2.806-1.327v-.416c.397 0 1.389-.043 2.133-.742.766-.734.836-1.651.851-1.856v-5.075c0-.367-.064-.67-.163-.925-.759-1.998-4.281-2.337-5.734-2.407H109v24.53h5.075c0-3.812-.008-7.617-.008-11.429h.872c.05 0 .418-.007.666.29a.81.81 0 0 1 .192.543c-.05 4.934-.029 8.548 0 9.325.007.14.035.423.234.706.361.515.985.557 1.07.564h4.189a3.258 3.258 0 0 1-.355-.41Zm-5.507-14.259c-.39.339-.964.31-1.361.24v-6.741c.709-.106 1.085.078 1.283.24.553.438.34 1.13.383 3.65.028 1.644.135 2.23-.305 2.611ZM81.272 23.895h-1.268a4.484 4.484 0 0 0-4.486 4.475v11.195c0 2.464 2.012 4.468 4.486 4.468h1.268c2.481 0 4.494-2.004 4.494-4.468V28.37c0-2.47-2.013-4.476-4.494-4.476Zm.263 16.242a.894.894 0 1 1-1.786 0V28.193a.893.893 0 1 1 1.786 0v11.944ZM91.037 19.518h-4.521v24.508h4.521V19.518ZM96.53 19.518h-4.522v24.508h4.522V19.518ZM132.099 24.191V44.07h-4.521v-.939c-.256.205-.653.48-1.191.692a4.732 4.732 0 0 1-2.467.247c-.595-.099-1.36-.226-1.934-.847a2.815 2.815 0 0 1-.575-.995 2.561 2.561 0 0 1-.12-.777V24.191h4.522c-.071 5.669-.135 11.33-.206 16.991 0 .021-.007.05.007.085.071.218.539.247.695.26.22.015.687 0 1.269-.345v-16.99h4.521ZM107.553 28.363v3.134h-4.232v-3.713a.893.893 0 0 0-.893-.897.888.888 0 0 0-.886.897v.317c0 .226 0 .466.029.727.056.643.212 1.18.368 1.61.057.113.107.204.149.268.092.155.213.36.347.55.043.064.093.12.142.177.248.297.489.501.751.692.723.522 1.546.819 2.679 1.948.645.635.879 1.03.95 1.158.234.402.376.811.468 1.186.078.352.113.677.128.96v2.174c0 2.463-2.013 4.475-4.494 4.475h-1.269a4.484 4.484 0 0 1-4.486-4.475v-3.142h4.231v3.714c0 .486.39.896.893.896.504 0 .886-.41.886-.896v-1.885a3.763 3.763 0 0 0-.538-1.828c-.015-.029-.029-.043-.05-.071a3.42 3.42 0 0 0-.843-.882c-.064-.057-.114-.085-.149-.113-.064-.057-.135-.092-.199-.142-2.147-1.496-3.231-2.258-3.72-3.338a3.553 3.553 0 0 1-.15-.381 4.747 4.747 0 0 1-.17-.572 8.4 8.4 0 0 1-.191-2.562c0-2.464 2.013-4.476 4.494-4.476h1.268a4.485 4.485 0 0 1 4.487 4.475v.015ZM143.17 28.363v3.134h-4.231v-3.713a.894.894 0 0 0-.893-.897.887.887 0 0 0-.886.897v.317a6.302 6.302 0 0 0 .397 2.337c.056.113.106.204.148.268.092.155.213.36.348.55.042.064.092.12.141.177.248.297.489.501.752.692.723.522 1.545.819 2.679 1.948.645.635.879 1.03.949 1.158.234.402.376.811.468 1.186.078.352.114.677.128.96v2.174c0 2.463-2.013 4.475-4.494 4.475h-1.268a4.484 4.484 0 0 1-4.487-4.475v-3.142h4.232v3.714c0 .486.389.896.893.896.503 0 .885-.41.885-.896v-1.885a3.763 3.763 0 0 0-.538-1.828c-.014-.029-.029-.043-.05-.071a3.377 3.377 0 0 0-.843-.882c-.064-.057-.114-.085-.149-.113-.064-.057-.135-.092-.198-.142-2.148-1.496-3.232-2.258-3.721-3.338a3.374 3.374 0 0 1-.149-.381 4.605 4.605 0 0 1-.17-.572c-.135-.537-.177-1.045-.192-1.222a8.508 8.508 0 0 1 0-1.34c0-2.464 2.013-4.476 4.494-4.476h1.268a4.485 4.485 0 0 1 4.487 4.475v.015Z"/></g><defs><clipPath id="a"><path fill="#fff" d="M0 0h144v60H0z"/></clipPath></defs></svg>