<svg xmlns="http://www.w3.org/2000/svg" width="60" height="60" fill="none"><path fill="#1C9080" d="M30 0c16.567 0 30 13.433 30 30S46.567 60 30 60 0 46.567 0 30 13.433 0 30 0Zm3.352 8.506c-8.675-.028-15.155.014-17.689.028-2.124-.105-3.557 1.624-3.698 3.205v36.084c.339 3.198 4.525 3.184 4.976-.007v-10.63c1.412-.974 2.824-1.941 4.236-2.916v18.954c.593 2.774 4.489 2.774 5.075 0V39.346c6.96-.487 14.802 4.63 21.042 11.86 1.2-1.208 2.407-2.408 3.614-3.615a33.783 33.783 0 0 0-2.838-3.072c-3.614-3.303-5.83-4.616-9.882-7.086 2.746-1.899 5.075-3.522 6.91-4.814.65-.459 1.286-.904 2.09-1.589 2.167-1.842 3.459-2.943 4.03-4.644.784-2.35-.013-5.21-1.714-7.024-1.885-2.004-4.49-2.287-5.245-2.372a8.305 8.305 0 0 0-1.186-.049c-.565.015-1.123.028-1.687.05-.014-1.264-.177-4.158-2.266-6.17a8.32 8.32 0 0 0-5.767-2.315ZM43.779 21.62c2.658.318 3.508 3.29 1.325 4.835-1.736 1.44-5.952 4.469-11.636 8.274-1.829-.58-4.89-.975-6.819-.883V30.48c4.168-2.958 8.343-5.908 12.517-8.859h4.613Zm-24.253-8.45h14.643c2.027.304 2.559 2.366 2.31 3.467h-11.58c-1.75.078-3.26 1.723-3.275 3.353v8.09c-1.446.994-2.891 1.99-4.337 2.992V15.516c-.092-1.03.765-2.408 2.24-2.344Zm7.125 11.372c.015-.176-.042-2.248.042-2.357.142-.375.667-.587 1.312-.566h2.53c-1.297.974-2.587 1.949-3.884 2.923Z"/></svg>